<svg xmlns="http://www.w3.org/2000/svg" xmlns:xlink="http://www.w3.org/1999/xlink" width="500" zoomAndPan="magnify" viewBox="0 0 375 374.999991" height="500" preserveAspectRatio="xMidYMid meet" version="1.0"><defs><g/><clipPath id="80abe6d373"><path d="M 139.058594 135.910156 L 224.792969 135.910156 L 224.792969 159.117188 L 139.058594 159.117188 Z M 139.058594 135.910156 " clip-rule="nonzero"/></clipPath><clipPath id="ae1340f9ee"><path d="M 0.0585938 0.910156 L 85.792969 0.910156 L 85.792969 24.117188 L 0.0585938 24.117188 Z M 0.0585938 0.910156 " clip-rule="nonzero"/></clipPath><clipPath id="a86f8eed98"><rect x="0" width="86" y="0" height="25"/></clipPath><clipPath id="50ef641c2a"><path d="M 77 117 L 231 117 L 231 359 L 77 359 Z M 77 117 " clip-rule="nonzero"/></clipPath><clipPath id="7aadd2145d"><path d="M 82.339844 358.042969 L 77.894531 355.28125 L 225.625 117.488281 L 230.066406 120.25 Z M 82.339844 358.042969 " clip-rule="nonzero"/></clipPath><clipPath id="bce837c067"><path d="M 0.761719 0.359375 L 153.160156 0.359375 L 153.160156 241.078125 L 0.761719 241.078125 Z M 0.761719 0.359375 " clip-rule="nonzero"/></clipPath><clipPath id="a38b7c797a"><path d="M 5.339844 241.042969 L 0.894531 238.28125 L 148.625 0.488281 L 153.066406 3.25 Z M 5.339844 241.042969 " clip-rule="nonzero"/></clipPath><clipPath id="fd59bf221e"><rect x="0" width="154" y="0" height="242"/></clipPath><clipPath id="9d80039444"><path d="M 103.421875 121.535156 L 237.40625 121.535156 L 237.40625 136.835938 L 103.421875 136.835938 Z M 103.421875 121.535156 " clip-rule="nonzero"/></clipPath><clipPath id="aaf47755cb"><path d="M 0.421875 0.535156 L 134.40625 0.535156 L 134.40625 15.835938 L 0.421875 15.835938 Z M 0.421875 0.535156 " clip-rule="nonzero"/></clipPath><clipPath id="6249ae6652"><rect x="0" width="135" y="0" height="16"/></clipPath><clipPath id="aebae01203"><path d="M 263 72 L 325 72 L 325 157 L 263 157 Z M 263 72 " clip-rule="nonzero"/></clipPath><clipPath id="aa1ef336c1"><path d="M 324.335938 81.875 L 279.207031 156.433594 L 263.074219 146.667969 L 308.203125 72.113281 Z M 324.335938 81.875 " clip-rule="nonzero"/></clipPath><clipPath id="c95d4d3670"><path d="M 0.0390625 0 L 61.480469 0 L 61.480469 84.480469 L 0.0390625 84.480469 Z M 0.0390625 0 " clip-rule="nonzero"/></clipPath><clipPath id="cc65321bfd"><path d="M 61.335938 9.875 L 16.207031 84.433594 L 0.0742188 74.667969 L 45.203125 0.113281 Z M 61.335938 9.875 " clip-rule="nonzero"/></clipPath><clipPath id="ada292dab9"><rect x="0" width="62" y="0" height="85"/></clipPath><clipPath id="c566c5e4a4"><path d="M 246 133 L 349 133 L 349 276 L 246 276 Z M 246 133 " clip-rule="nonzero"/></clipPath><clipPath id="4233c968e7"><path d="M 246.5 148.34375 L 270.128906 133.839844 L 348.046875 260.777344 L 324.417969 275.28125 Z M 246.5 148.34375 " clip-rule="nonzero"/></clipPath><clipPath id="ee17c77e19"><path d="M 0.480469 0.679688 L 102.238281 0.679688 L 102.238281 142.519531 L 0.480469 142.519531 Z M 0.480469 0.679688 " clip-rule="nonzero"/></clipPath><clipPath id="290422627d"><path d="M 0.5 15.34375 L 24.128906 0.839844 L 102.046875 127.777344 L 78.417969 142.28125 Z M 0.5 15.34375 " clip-rule="nonzero"/></clipPath><clipPath id="a13554b630"><rect x="0" width="103" y="0" height="143"/></clipPath><clipPath id="c5342af36a"><path d="M 196 147 L 287 147 L 287 271 L 196 271 Z M 196 147 " clip-rule="nonzero"/></clipPath><clipPath id="b948f0d16a"><path d="M 263.425781 147.296875 L 286.765625 161.695312 L 219.621094 270.554688 L 196.28125 256.15625 Z M 263.425781 147.296875 " clip-rule="nonzero"/></clipPath><clipPath id="29bf14d6ce"><path d="M 0.078125 0.121094 L 90.800781 0.121094 L 90.800781 123.71875 L 0.078125 123.71875 Z M 0.078125 0.121094 " clip-rule="nonzero"/></clipPath><clipPath id="911a0159aa"><path d="M 67.425781 0.296875 L 90.765625 14.695312 L 23.621094 123.554688 L 0.28125 109.15625 Z M 67.425781 0.296875 " clip-rule="nonzero"/></clipPath><clipPath id="d6bce3a6d7"><rect x="0" width="91" y="0" height="124"/></clipPath><clipPath id="8bd42ea5cc"><path d="M 233.046875 216.902344 L 313.007812 216.902344 L 313.007812 240.019531 L 233.046875 240.019531 Z M 233.046875 216.902344 " clip-rule="nonzero"/></clipPath><clipPath id="4b6eedd944"><path d="M 0.046875 0.902344 L 80 0.902344 L 80 24.019531 L 0.046875 24.019531 Z M 0.046875 0.902344 " clip-rule="nonzero"/></clipPath><clipPath id="c0e0db7558"><rect x="0" width="81" y="0" height="25"/></clipPath><clipPath id="003d249a2a"><path d="M 237 123 L 269 123 L 269 163 L 237 163 Z M 237 123 " clip-rule="nonzero"/></clipPath><clipPath id="34ba4e09cf"><path d="M 268.46875 130.914062 L 248.914062 162.4375 L 237.40625 155.300781 L 256.960938 123.777344 Z M 268.46875 130.914062 " clip-rule="nonzero"/></clipPath><clipPath id="337a330f8a"><path d="M 0.359375 0.601562 L 31.558594 0.601562 L 31.558594 39.480469 L 0.359375 39.480469 Z M 0.359375 0.601562 " clip-rule="nonzero"/></clipPath><clipPath id="49372d9407"><path d="M 31.46875 7.914062 L 11.914062 39.4375 L 0.40625 32.300781 L 19.960938 0.777344 Z M 31.46875 7.914062 " clip-rule="nonzero"/></clipPath><clipPath id="7d9a1585bf"><rect x="0" width="32" y="0" height="40"/></clipPath><clipPath id="19a71c7ea1"><path d="M 191 64 L 314 64 L 314 258 L 191 258 Z M 191 64 " clip-rule="nonzero"/></clipPath><clipPath id="34deaf5d9c"><path d="M 195.730469 257.535156 L 191.285156 254.777344 L 308.960938 64.816406 L 313.410156 67.570312 Z M 195.730469 257.535156 " clip-rule="nonzero"/></clipPath><clipPath id="07b29a77c4"><path d="M 0.28125 0.800781 L 122.441406 0.800781 L 122.441406 193.761719 L 0.28125 193.761719 Z M 0.28125 0.800781 " clip-rule="nonzero"/></clipPath><clipPath id="67dba89f2e"><path d="M 4.730469 193.535156 L 0.285156 190.777344 L 117.960938 0.816406 L 122.410156 3.570312 Z M 4.730469 193.535156 " clip-rule="nonzero"/></clipPath><clipPath id="69c7739a15"><rect x="0" width="123" y="0" height="194"/></clipPath><clipPath id="a9505b041a"><path d="M 150.738281 252.746094 L 342.957031 252.746094 L 342.957031 296.328125 L 150.738281 296.328125 Z M 150.738281 252.746094 " clip-rule="nonzero"/></clipPath><clipPath id="b0b3c1dede"><path d="M 0.738281 0.746094 L 192.957031 0.746094 L 192.957031 44.328125 L 0.738281 44.328125 Z M 0.738281 0.746094 " clip-rule="nonzero"/></clipPath><clipPath id="e06c05d4e7"><rect x="0" width="193" y="0" height="45"/></clipPath><clipPath id="89a3178989"><path d="M 108.167969 75.203125 L 172.378906 75.203125 L 172.378906 129.179688 L 108.167969 129.179688 Z M 108.167969 75.203125 " clip-rule="nonzero"/></clipPath><clipPath id="a6133ffce9"><path d="M 0.167969 0.203125 L 64.378906 0.203125 L 64.378906 54.179688 L 0.167969 54.179688 Z M 0.167969 0.203125 " clip-rule="nonzero"/></clipPath><clipPath id="1017b79d99"><rect x="0" width="65" y="0" height="55"/></clipPath><clipPath id="04707683f7"><path d="M 140.894531 76.992188 L 187.683594 76.992188 L 187.683594 123.78125 L 140.894531 123.78125 Z M 140.894531 76.992188 " clip-rule="nonzero"/></clipPath><clipPath id="6c4ea3e29c"><path d="M 164.289062 76.992188 C 151.371094 76.992188 140.894531 87.46875 140.894531 100.386719 C 140.894531 113.308594 151.371094 123.78125 164.289062 123.78125 C 177.210938 123.78125 187.683594 113.308594 187.683594 100.386719 C 187.683594 87.46875 177.210938 76.992188 164.289062 76.992188 Z M 164.289062 76.992188 " clip-rule="nonzero"/></clipPath><clipPath id="736cefbcbc"><path d="M 0.894531 0.992188 L 47.683594 0.992188 L 47.683594 47.78125 L 0.894531 47.78125 Z M 0.894531 0.992188 " clip-rule="nonzero"/></clipPath><clipPath id="6d929ea457"><path d="M 24.289062 0.992188 C 11.371094 0.992188 0.894531 11.46875 0.894531 24.386719 C 0.894531 37.308594 11.371094 47.78125 24.289062 47.78125 C 37.210938 47.78125 47.683594 37.308594 47.683594 24.386719 C 47.683594 11.46875 37.210938 0.992188 24.289062 0.992188 Z M 24.289062 0.992188 " clip-rule="nonzero"/></clipPath><clipPath id="cd773b3a41"><rect x="0" width="48" y="0" height="48"/></clipPath><clipPath id="b1ba9b8a2b"><path d="M 154.410156 90.507812 L 174.171875 90.507812 L 174.171875 110.269531 L 154.410156 110.269531 Z M 154.410156 90.507812 " clip-rule="nonzero"/></clipPath><clipPath id="8c54cd0f69"><path d="M 164.289062 90.507812 C 158.832031 90.507812 154.410156 94.929688 154.410156 100.386719 C 154.410156 105.84375 158.832031 110.269531 164.289062 110.269531 C 169.746094 110.269531 174.171875 105.84375 174.171875 100.386719 C 174.171875 94.929688 169.746094 90.507812 164.289062 90.507812 Z M 164.289062 90.507812 " clip-rule="nonzero"/></clipPath><clipPath id="c4a3a1628f"><path d="M 0.410156 0.507812 L 20.171875 0.507812 L 20.171875 20.269531 L 0.410156 20.269531 Z M 0.410156 0.507812 " clip-rule="nonzero"/></clipPath><clipPath id="f0534f30e8"><path d="M 10.289062 0.507812 C 4.832031 0.507812 0.410156 4.929688 0.410156 10.386719 C 0.410156 15.84375 4.832031 20.269531 10.289062 20.269531 C 15.746094 20.269531 20.171875 15.84375 20.171875 10.386719 C 20.171875 4.929688 15.746094 0.507812 10.289062 0.507812 Z M 10.289062 0.507812 " clip-rule="nonzero"/></clipPath><clipPath id="fe8c8889e1"><rect x="0" width="21" y="0" height="21"/></clipPath><clipPath id="811a00b027"><path d="M 342.957031 246.691406 L 349.757812 246.691406 L 349.757812 270.554688 L 342.957031 270.554688 Z M 342.957031 246.691406 " clip-rule="nonzero"/></clipPath><clipPath id="a0a418665f"><path d="M 0.957031 0.691406 L 7.757812 0.691406 L 7.757812 24.554688 L 0.957031 24.554688 Z M 0.957031 0.691406 " clip-rule="nonzero"/></clipPath><clipPath id="dc8cde745b"><rect x="0" width="8" y="0" height="25"/></clipPath></defs><rect x="-37.5" width="450" fill="#ffffff" y="-37.499999" height="449.999989" fill-opacity="1"/><rect x="-37.5" width="450" fill="#000000" y="-37.499999" height="449.999989" fill-opacity="1"/><g fill="#ffffff" fill-opacity="1"><g transform="translate(112.647112, 250.910842)"><g><path d="M 24.125 -136.859375 L 52.578125 -161.53125 L 65.34375 -145.40625 L 31.96875 -126.0625 Z M 74.59375 -115.6875 L 74.59375 -92.546875 L 34.78125 -92.546875 L 34.78125 -69.546875 L 72.90625 -69.546875 L 72.90625 -46.40625 L 34.78125 -46.40625 L 34.78125 -23.140625 L 74.59375 -23.140625 L 74.59375 0 L 8.40625 0 L 8.40625 -115.6875 Z M 74.59375 -115.6875 "/></g></g></g><g clip-path="url(#80abe6d373)"><g transform="matrix(1, 0, 0, 1, 139, 135)"><g clip-path="url(#a86f8eed98)"><g clip-path="url(#ae1340f9ee)"><path fill="#ffffff" d="M 0.0585938 0.910156 L 85.820312 0.910156 L 85.820312 24.117188 L 0.0585938 24.117188 Z M 0.0585938 0.910156 " fill-opacity="1" fill-rule="nonzero"/></g></g></g></g><g fill="#ffffff" fill-opacity="1"><g transform="translate(25.240705, 250.910667)"><g><path d="M 8.40625 -115.6875 L 49.78125 -115.6875 C 60.90625 -115.6875 69.972656 -112.71875 76.984375 -106.78125 C 83.992188 -100.84375 87.5 -92.359375 87.5 -81.328125 C 87.5 -72.816406 85.367188 -65.6875 81.109375 -59.9375 C 76.859375 -54.1875 71.085938 -50.144531 63.796875 -47.8125 L 103.625 0 L 70.109375 0 L 34.78125 -45.71875 L 34.78125 0 L 8.40625 0 Z M 34.78125 -64.359375 L 37.859375 -64.359375 C 40.285156 -64.359375 42.335938 -64.40625 44.015625 -64.5 C 45.703125 -64.59375 47.617188 -64.921875 49.765625 -65.484375 C 51.921875 -66.046875 53.648438 -66.835938 54.953125 -67.859375 C 56.265625 -68.890625 57.390625 -70.382812 58.328125 -72.34375 C 59.265625 -74.3125 59.734375 -76.695312 59.734375 -79.5 C 59.734375 -82.300781 59.265625 -84.679688 58.328125 -86.640625 C 57.390625 -88.609375 56.265625 -90.109375 54.953125 -91.140625 C 53.648438 -92.171875 51.921875 -92.96875 49.765625 -93.53125 C 47.617188 -94.09375 45.703125 -94.414062 44.015625 -94.5 C 42.335938 -94.59375 40.285156 -94.640625 37.859375 -94.640625 L 34.78125 -94.640625 Z M 34.78125 -64.359375 "/></g></g></g><g clip-path="url(#50ef641c2a)"><g clip-path="url(#7aadd2145d)"><g transform="matrix(1, 0, 0, 1, 77, 117)"><g clip-path="url(#fd59bf221e)"><g clip-path="url(#bce837c067)"><g clip-path="url(#a38b7c797a)"><path fill="#000000" d="M 5.339844 241.042969 L 0.894531 238.28125 L 148.625 0.484375 L 153.070312 3.246094 Z M 5.339844 241.042969 " fill-opacity="1" fill-rule="nonzero"/></g></g></g></g></g></g><g clip-path="url(#9d80039444)"><g transform="matrix(1, 0, 0, 1, 103, 121)"><g clip-path="url(#6249ae6652)"><g clip-path="url(#aaf47755cb)"><path fill="#000000" d="M 134.40625 0.535156 L 134.40625 15.835938 L 0.445312 15.835938 L 0.445312 0.535156 Z M 134.40625 0.535156 " fill-opacity="1" fill-rule="nonzero"/></g></g></g></g><g fill="#c63334" fill-opacity="1"><g transform="translate(116.21128, 296.417764)"><g><path d="M 199.375 -218.4375 L 91.078125 -43.6875 L 192.21875 -43.6875 L 192.21875 0 L 4.234375 0 L 112.265625 -174.75 L 19.59375 -174.75 L 19.59375 -218.4375 Z M 199.375 -218.4375 "/></g></g></g><g clip-path="url(#aebae01203)"><g clip-path="url(#aa1ef336c1)"><g transform="matrix(1, 0, 0, 1, 263, 72)"><g clip-path="url(#ada292dab9)"><g clip-path="url(#c95d4d3670)"><g clip-path="url(#cc65321bfd)"><path fill="#000000" d="M 61.335938 9.875 L 16.214844 84.417969 L 0.0820312 74.65625 L 45.203125 0.113281 Z M 61.335938 9.875 " fill-opacity="1" fill-rule="nonzero"/></g></g></g></g></g></g><g clip-path="url(#c566c5e4a4)"><g clip-path="url(#4233c968e7)"><g transform="matrix(1, 0, 0, 1, 246, 133)"><g clip-path="url(#a13554b630)"><g clip-path="url(#ee17c77e19)"><g clip-path="url(#290422627d)"><path fill="#f3802e" d="M 0.5 15.34375 L 24.128906 0.839844 L 102.039062 127.761719 L 78.410156 142.265625 Z M 0.5 15.34375 " fill-opacity="1" fill-rule="nonzero"/></g></g></g></g></g></g><g clip-path="url(#c5342af36a)"><g clip-path="url(#b948f0d16a)"><g transform="matrix(1, 0, 0, 1, 196, 147)"><g clip-path="url(#d6bce3a6d7)"><g clip-path="url(#29bf14d6ce)"><g clip-path="url(#911a0159aa)"><path fill="#f3802e" d="M 67.425781 0.296875 L 90.765625 14.695312 L 23.617188 123.5625 L 0.273438 109.164062 Z M 67.425781 0.296875 " fill-opacity="1" fill-rule="nonzero"/></g></g></g></g></g></g><g clip-path="url(#8bd42ea5cc)"><g transform="matrix(1, 0, 0, 1, 233, 216)"><g clip-path="url(#c0e0db7558)"><g clip-path="url(#4b6eedd944)"><path fill="#f3802e" d="M 0.046875 24.019531 L 0.046875 0.902344 L 79.964844 0.902344 L 79.964844 24.019531 Z M 0.046875 24.019531 " fill-opacity="1" fill-rule="nonzero"/></g></g></g></g><g clip-path="url(#003d249a2a)"><g clip-path="url(#34ba4e09cf)"><g transform="matrix(1, 0, 0, 1, 237, 123)"><g clip-path="url(#7d9a1585bf)"><g clip-path="url(#337a330f8a)"><g clip-path="url(#49372d9407)"><path fill="#c63334" d="M 31.46875 7.914062 L 11.921875 39.425781 L 0.414062 32.289062 L 19.960938 0.777344 Z M 31.46875 7.914062 " fill-opacity="1" fill-rule="nonzero"/></g></g></g></g></g></g><g clip-path="url(#19a71c7ea1)"><g clip-path="url(#34deaf5d9c)"><g transform="matrix(1, 0, 0, 1, 191, 64)"><g clip-path="url(#69c7739a15)"><g clip-path="url(#07b29a77c4)"><g clip-path="url(#67dba89f2e)"><path fill="#000000" d="M 4.730469 193.535156 L 0.285156 190.777344 L 117.957031 0.824219 L 122.40625 3.578125 Z M 4.730469 193.535156 " fill-opacity="1" fill-rule="nonzero"/></g></g></g></g></g></g><g clip-path="url(#a9505b041a)"><g transform="matrix(1, 0, 0, 1, 150, 252)"><g clip-path="url(#e06c05d4e7)"><g clip-path="url(#b0b3c1dede)"><path fill="#c63334" d="M 0.738281 0.746094 L 192.941406 0.746094 L 192.941406 44.328125 L 0.738281 44.328125 Z M 0.738281 0.746094 " fill-opacity="1" fill-rule="nonzero"/></g></g></g></g><g clip-path="url(#89a3178989)"><g transform="matrix(1, 0, 0, 1, 108, 75)"><g clip-path="url(#1017b79d99)"><g clip-path="url(#a6133ffce9)"><path fill="#000000" d="M 64.378906 0.203125 L 64.378906 54.179688 L 0.0703125 54.179688 L 0.0703125 0.203125 Z M 64.378906 0.203125 " fill-opacity="1" fill-rule="nonzero"/></g></g></g></g><g clip-path="url(#04707683f7)"><g clip-path="url(#6c4ea3e29c)"><g transform="matrix(1, 0, 0, 1, 140, 76)"><g clip-path="url(#cd773b3a41)"><g clip-path="url(#736cefbcbc)"><g clip-path="url(#6d929ea457)"><path fill="#000000" d="M 0.894531 0.992188 L 47.683594 0.992188 L 47.683594 47.78125 L 0.894531 47.78125 Z M 0.894531 0.992188 " fill-opacity="1" fill-rule="nonzero"/></g></g></g></g></g></g><g clip-path="url(#b1ba9b8a2b)"><g clip-path="url(#8c54cd0f69)"><g transform="matrix(1, 0, 0, 1, 154, 90)"><g clip-path="url(#fe8c8889e1)"><g clip-path="url(#c4a3a1628f)"><g clip-path="url(#f0534f30e8)"><path fill="#f3802e" d="M 0.410156 0.507812 L 20.171875 0.507812 L 20.171875 20.269531 L 0.410156 20.269531 Z M 0.410156 0.507812 " fill-opacity="1" fill-rule="nonzero"/></g></g></g></g></g></g><g clip-path="url(#811a00b027)"><g transform="matrix(1, 0, 0, 1, 342, 246)"><g clip-path="url(#dc8cde745b)"><g clip-path="url(#a0a418665f)"><path fill="#000000" d="M 0.957031 0.691406 L 7.757812 0.691406 L 7.757812 24.554688 L 0.957031 24.554688 Z M 0.957031 0.691406 " fill-opacity="1" fill-rule="nonzero"/></g></g></g></g></svg>